<svg width="25" height="25" viewBox="0 0 25 25" fill="none" xmlns="http://www.w3.org/2000/svg">
<path d="M3.57739 12.7101L5.57739 10.7101M5.57739 10.7101L12.5774 3.71014L19.5774 10.7101M5.57739 10.7101V20.7101C5.57739 21.2624 6.02511 21.7101 6.57739 21.7101H9.57739M19.5774 10.7101L21.5774 12.7101M19.5774 10.7101V20.7101C19.5774 21.2624 19.1297 21.7101 18.5774 21.7101H15.5774M9.57739 21.7101C10.1297 21.7101 10.5774 21.2624 10.5774 20.7101V16.7101C10.5774 16.1579 11.0251 15.7101 11.5774 15.7101H13.5774C14.1297 15.7101 14.5774 16.1579 14.5774 16.7101V20.7101C14.5774 21.2624 15.0251 21.7101 15.5774 21.7101M9.57739 21.7101H15.5774" stroke="white" stroke-width="2" stroke-linecap="round" stroke-linejoin="round"/>
</svg>
